<?xml version="1.0" encoding="utf-8"?>
<!-- Generator: Adobe Illustrator 26.0.1, SVG Export Plug-In . SVG Version: 6.00 Build 0)  -->
<svg version="1.1" id="Layer_1" xmlns="http://www.w3.org/2000/svg" xmlns:xlink="http://www.w3.org/1999/xlink" x="0px" y="0px"
	 viewBox="0 0 521.72 123.49" style="enable-background:new 0 0 521.72 123.49;" xml:space="preserve">
<g>
	<polygon style="fill-rule:evenodd;clip-rule:evenodd;fill:#00405C;" points="91.44,0 354.41,0 354.41,87.03 187.1,87.03 	"/>
	<rect x="354.41" style="fill-rule:evenodd;clip-rule:evenodd;fill:#F6A200;" width="167.31" height="87.03"/>
	<path style="fill:#E7E6E6;" d="M338.67,5.84h10.5v41.42c0,6.43-2.08,11.93-6.23,16.49c-4.15,4.56-9.2,6.84-15.13,6.84
		c-3.87,0-7.45-1.05-10.73-3.14c-3.28-2.09-5.87-4.92-7.78-8.48c-1.91-3.56-2.86-7.47-2.86-11.71V5.84h10.5v41.51
		c0,3.25,1.06,6.03,3.19,8.34c2.12,2.31,4.69,3.47,7.68,3.47c3,0,5.56-1.16,7.68-3.47c2.12-2.31,3.19-5.09,3.19-8.34V5.84z
		 M268.1,59.07c5.31,0,9.86-2.05,13.64-6.14c3.78-4.09,5.67-9.04,5.67-14.85s-1.89-10.76-5.67-14.85
		c-3.78-4.09-8.33-6.14-13.64-6.14h-2.72v41.98H268.1z M267.91,5.75c5.37,0,10.34,1.44,14.9,4.31c4.56,2.87,8.17,6.79,10.82,11.76
		c2.66,4.97,3.98,10.39,3.98,16.26c0,5.87-1.33,11.29-3.98,16.26c-2.66,4.97-6.26,8.89-10.82,11.76c-4.56,2.87-9.53,4.31-14.9,4.31
		h-13.03V5.75h10.31H267.91z M205.22,5.75h40.86v11.34c0,0.12,0,0.19,0,0.19c0,3-1,5.59-3,7.78c-2.06,2.19-4.53,3.28-7.4,3.28V17.09
		h-19.96v15.18h19.96v11.34h-19.96v15.46h19.96V47.82c2.87,0,5.34,1.09,7.4,3.28c2,2.19,3,4.78,3,7.78c0,0.06,0,0.12,0,0.19v11.34
		h-30.36v0.38c0,2.94-1.03,5.42-3.09,7.45c-2.06,2.03-4.53,3.05-7.4,3.05V17.09h-1.31c-3.06,0-5.65-1.06-7.78-3.19
		c-2.12-2.12-3.19-4.69-3.19-7.68V5.75H205.22z"/>
	<path style="fill:#030304;" d="M505.47,5.75h10.4v64.94h-10.4c0,0,0-0.03,0-0.09v-0.19l-29.14-45.17V70.5h-10.5V5.75h10.5
		l29.14,45.07V5.75z M416.26,5.75h40.95v11.34h-0.09h-10.4h-19.96v15.18h19.96v11.34h-19.96v15.46h30.46v11.34h-40.95V5.75z
		 M380.65,17.09v15.27h9.18c1.94,0,3.59-0.73,4.97-2.2c1.37-1.47,2.06-3.26,2.06-5.39c0-1.06-0.19-2.06-0.56-3
		c-0.37-0.94-0.87-1.75-1.5-2.44c-0.62-0.69-1.37-1.23-2.25-1.64c-0.87-0.41-1.78-0.61-2.72-0.61H380.65z M390.11,43.51h-6.75
		l24.18,26.89h-13.96l-13.12-14.53v14.9c0,2.87-1.02,5.34-3.05,7.4c-2.03,2.06-4.51,3.09-7.45,3.09V17.09h-1.12
		c-3.06,0-5.65-1.06-7.78-3.19c-2.12-2.12-3.19-4.69-3.19-7.68V5.75h32.24c4.81,0,8.92,1.84,12.32,5.53
		c3.4,3.69,5.11,8.14,5.11,13.35c0,5.22-1.7,9.67-5.11,13.35C399.03,41.67,394.92,43.51,390.11,43.51z"/>
	<polygon style="fill-rule:evenodd;clip-rule:evenodd;fill:#00405C;" points="79.39,0 0,123.46 149.49,123.49 	"/>
	<path style="fill-rule:evenodd;clip-rule:evenodd;fill:#E7E6E6;" d="M96.75,107.91c-3.4-2.29-7.35-3.78-11.5-5.13l-3.64,3.66
		c0.9,0.22,2.51,0.37,3.51,0.54c3.28,0.55,6.74,1.68,9.69,3.05c3.2,1.48,5.29,2.72,8.04,4.68c1.14,0.81,5.42,4.29,5.79,5.16l0,0.21
		l-2.47-1.91c-0.9-0.73-1.67-1.21-2.6-1.86c-1.73-1.21-3.55-2.3-5.62-3.31c-2.72-1.32-10.27-4.22-13.85-3.97
		c-0.75,0.72-1.19,1.19-1.89,1.9c-0.43,0.44-1.51,1.29-1.77,1.87c8.16-0.57,15.44,1.19,22.58,4.4c2.42,1.09,3.89,2.29,5.67,3.23
		c0.51,0.86,1.63,1.27,2.23,0.3c2.02-1.21,3.62-2.26,5.81-3.36c6.27-3.12,15.84-5.37,22.89-4.55c-0.37-0.77-2.02-2.16-2.65-2.83
		c-1.42-1.49-1.61-1-3.96-0.61c-5.62,0.93-10.75,3.27-15.33,6.12c-2.36,1.47-5.13,3.84-6.13,4.46l0.05-0.34
		c0.24-0.31,0.52-0.64,0.89-1.05c1.38-1.52,3.91-3.29,5.69-4.55c3.79-2.67,9.08-5.16,13.65-6.34c0.92-0.24,6.45-1.23,6.58-1.3
		c-0.23-0.47-2.88-2.9-3.47-3.59c-10.4,3.2-22.02,13.81-23.99,16.63c0.44-1.22,1.49-2.63,2.13-3.58
		c3.66-5.47,8.39-10.45,14.14-13.76c3.9-2.24,5.3-2.07,7.62-2.94l0.43-0.21l-16.65-16.72c-0.79,0.37-2.78,3.2-3.37,4.11
		c-0.97,1.5-1.77,3-2.5,4.77c-0.93,2.26-2.65,10.18-2.88,11.94c-0.47-1.56-1.74-11.67-5.07-16.7c-0.81-1.22-2.38-3.55-3.36-4.06
		l-8.25,8.25c-0.4,0.4-8.15,8-8.33,8.42c0.48,0.3,4.77,1.36,7.79,3.01c4.63,2.52,8.45,5.98,11.7,10.11c0.95,1.2,4.17,5.72,4.38,6.91
		C107.1,117.01,101.29,110.97,96.75,107.91"/>
	<path style="fill-rule:evenodd;clip-rule:evenodd;fill:#E7E6E6;" d="M73.47,57.19c6.11-1.73,13.87-0.09,17.25,1.19
		c2.85,1.08,3.52,2.34,6.7,1.16l6.79-2.48l0.14,22.08l0.57,0l-0.15-22.39l4.38-1.42c-1.28-2.17-27.09-13.15-31.22-15.08L46.02,54.59
		l14.48,6.05l-0.02,9.28c4.51-1.05,11.97-7.91,26.42-3.41c2.21,0.69,6.55,3.07,7.86,3.12l-0.09-6.55
		C89.89,56.94,74.62,57.47,73.47,57.19"/>
	<path style="fill-rule:evenodd;clip-rule:evenodd;fill:#E7E6E6;" d="M41.99,77.69c-7.73,1.64-5.37,12.22,1.77,11.13
		c3.25-0.49,5.02-3.43,4.57-6.64C47.94,79.36,44.77,77.1,41.99,77.69 M40.71,121.02c1.13,0.28,13.41,0.23,15.04,0.07
		c0.02-0.73,0.14-1.18-0.16-1.79l-3.61-0.01c0.01-0.86,0.24-2.27-0.13-2.95c-0.7-0.49-5.88-0.26-7.15-0.12l-0.08,3.04l-3.91,0.1
		L40.71,121.02z M65.09,96.61c-6.46-0.08-10.97,3.91-13.56,3.95c-3.5,0.06-8-4.95-14.71-3.34c0.31,1.41,1.94,8.35,2.33,11.13
		c0.2,0.33,4.17,1.37,5.04,1.75c4.72,2.05,4.16,3.06,7.34,3.03c1.55-0.02,1.29-0.3,2.44-1.07c1.24-0.84,3.24-1.91,4.59-2.42
		c0.52-0.14,3.66-0.95,3.82-1.17C62.63,108.12,64.79,97.9,65.09,96.61z M50.43,91.64c1.52,2.72,6.2,2.99,7,0.2
		c1.02-2.47-0.25-5.63-3.15-5.83c-1.46-0.1-2.62,0.37-3.49,1.53C50.05,88.55,49.99,90.4,50.43,91.64z M68.71,92.5
		c0.02-1.23-0.01-2.45,0-3.67c0.01-1.01,0.29-2.34-0.89-2.64c-0.64-0.16-5.94-0.11-6.85-0.04c-0.01,0.7,0.01,1.28,0.39,1.74
		c0.21,0.88,4.38-0.31,5.03,0.54l0.04,11.79l-0.01,8.6l-0.01,4.62c-2.38,0.31-6.61,0.07-9.19,0.07c-4,0-26.2,0.23-26.94-0.2
		c0.02-8.6,0.03-16.67,0.04-24.85c0.27-0.34-0.2-0.22,0.53-0.34l2.4-0.02c0.16-0.71,0.31-1.3-0.05-1.84
		c-0.49-0.26-3.94-0.28-4.58-0.02c-1.09,0.45-0.69,3.19-0.69,4.25c-0.03,4.87-0.01,9.75-0.02,14.62l-0.01,5.61
		c-0.01,1.22-0.36,3.64,0.47,4.51c0.66,0.42,29.97,0.15,35.48,0.16c4.98,0.01,4.86,0.49,4.84-2.9l0.01-5.62l0-3.53L68.71,92.5z
		 M36.3,100.5l-0.9-4.05c1.33-1.08,4.88-0.93,6.46-0.66c4.12,0.71,5.73,2.65,8.3,3.44c1.37,0.42,2.25-0.13,3.39-0.75
		c2.06-1.12,5.81-2.33,7.37-2.45c-1.31-1.98-9.35-1.45-9.42,1.56c-1.23-0.35-0.16-1.52-1.51-4.1c-0.56-1.08-1.63-2.25-2.69-2.85
		c-2.47-1.38-1.86-0.44-4.28-0.14c-1.75,0.22-3.41-0.54-5.17-0.46c-2.99,0.14-4.84,3.11-5.1,5.89c-0.17,1.8-0.87,9.49,0.18,10.5
		c0.43,1.67,3.54,1.09,4.88,1.05L36.3,100.5z"/>
	<polygon style="fill-rule:evenodd;clip-rule:evenodd;fill:#F6A200;" points="79.39,0 149.49,123.49 175.24,87.41 	"/>
	<path d="M517.98,122.28c-0.1-0.6-0.15-1.2-0.15-1.78c0-0.59,0.05-1.19,0.15-1.81c0.6-0.1,1.2-0.15,1.78-0.15
		c0.59,0,1.19,0.05,1.81,0.15c0.1,0.62,0.15,1.21,0.15,1.78c0,0.6-0.05,1.21-0.15,1.81c-0.62,0.1-1.21,0.15-1.78,0.15
		C519.19,122.43,518.58,122.38,517.98,122.28 M505.25,119.44c0.15,0.02,0.33,0.03,0.56,0.05c0.23,0.02,0.51,0.02,0.83,0.02
		c0.75,0,1.45-0.09,2.09-0.26c0.64-0.17,1.2-0.48,1.67-0.94c0.47-0.46,0.85-1.07,1.12-1.83c0.28-0.77,0.42-1.75,0.42-2.96
		c0-1.17-0.14-2.15-0.42-2.93c-0.28-0.78-0.65-1.4-1.12-1.86c-0.47-0.46-1.01-0.78-1.62-0.97c-0.61-0.19-1.26-0.28-1.94-0.28
		c-0.23,0-0.49,0-0.79,0.01c-0.3,0.01-0.57,0.03-0.79,0.06V119.44z M501.66,104.71c0.68-0.08,1.4-0.15,2.15-0.21
		c0.75-0.06,1.58-0.09,2.49-0.09c3.08,0,5.42,0.77,7.02,2.3c1.6,1.53,2.41,3.83,2.41,6.89c0,3.08-0.81,5.34-2.44,6.79
		c-1.63,1.45-4.05,2.17-7.26,2.17c-0.83,0-1.6-0.03-2.3-0.09c-0.7-0.06-1.39-0.13-2.08-0.21V104.71z M488.61,104.71h9.97
		c0.1,0.49,0.15,0.99,0.15,1.49c0,0.54-0.05,1.05-0.15,1.54h-6.4v3.81h5.08c0.1,0.52,0.15,1.03,0.15,1.52
		c0,0.52-0.05,1.03-0.15,1.54h-5.08v4.64h6.57c0.1,0.49,0.15,0.99,0.15,1.49c0,0.54-0.05,1.05-0.15,1.54h-10.14V104.71z
		 M478.18,107.74h-4.37c-0.1-0.49-0.15-1-0.15-1.54c0-0.5,0.05-1,0.15-1.49h12.34c0.1,0.49,0.15,0.99,0.15,1.49
		c0,0.54-0.05,1.05-0.15,1.54h-4.37v14.54c-0.29,0.03-0.59,0.06-0.88,0.09c-0.29,0.02-0.58,0.04-0.86,0.04
		c-0.28,0-0.57-0.01-0.89-0.02c-0.32-0.02-0.64-0.05-0.97-0.1V107.74z M467.75,104.71c0.6-0.1,1.2-0.15,1.78-0.15
		c0.59,0,1.19,0.05,1.81,0.15v17.57c-0.62,0.1-1.21,0.15-1.78,0.15c-0.6,0-1.21-0.05-1.81-0.15V104.71z M448.27,104.71
		c0.65-0.1,1.28-0.15,1.88-0.15c0.64,0,1.26,0.05,1.88,0.15l4.03,10.07l4.15-10.07c0.5-0.1,1.07-0.15,1.69-0.15
		c0.62,0,1.21,0.05,1.78,0.15l0.83,17.57c-0.62,0.1-1.21,0.15-1.76,0.15c-0.55,0-1.1-0.05-1.64-0.15l-0.44-11.92l-3.57,8.26
		c-0.23,0.03-0.46,0.06-0.71,0.09c-0.24,0.02-0.49,0.04-0.73,0.04c-0.21,0-0.42-0.01-0.64-0.02c-0.21-0.02-0.43-0.05-0.66-0.1
		l-3.32-8.43l-0.34,12.09c-0.52,0.1-1.03,0.15-1.52,0.15c-0.52,0-1.06-0.05-1.61-0.15L448.27,104.71z M440.77,104.71
		c0.6-0.1,1.2-0.15,1.78-0.15c0.59,0,1.19,0.05,1.81,0.15v17.57c-0.62,0.1-1.21,0.15-1.78,0.15c-0.6,0-1.21-0.05-1.81-0.15V104.71z
		 M428.73,104.71c0.6-0.1,1.18-0.15,1.73-0.15c0.57,0,1.17,0.05,1.78,0.15v14.49h6.08c0.05,0.28,0.08,0.54,0.1,0.79
		c0.02,0.25,0.02,0.49,0.02,0.72c0,0.26-0.01,0.52-0.02,0.77c-0.02,0.25-0.05,0.52-0.1,0.79h-9.6V104.71z M410.38,104.71h9.97
		c0.1,0.49,0.15,0.99,0.15,1.49c0,0.54-0.05,1.05-0.15,1.54h-6.4v3.81h5.08c0.1,0.52,0.15,1.03,0.15,1.52
		c0,0.52-0.05,1.03-0.15,1.54h-5.08v4.64h6.57c0.1,0.49,0.15,0.99,0.15,1.49c0,0.54-0.05,1.05-0.15,1.54h-10.14V104.71z
		 M399.94,107.74h-4.37c-0.1-0.49-0.15-1-0.15-1.54c0-0.5,0.05-1,0.15-1.49h12.34c0.1,0.49,0.15,0.99,0.15,1.49
		c0,0.54-0.05,1.05-0.15,1.54h-4.37v14.54c-0.29,0.03-0.59,0.06-0.88,0.09c-0.29,0.02-0.58,0.04-0.86,0.04
		c-0.28,0-0.57-0.01-0.89-0.02c-0.32-0.02-0.64-0.05-0.97-0.1V107.74z M390.68,115.8l-2.03-7.38l-2.13,7.38H390.68z M386.78,104.71
		c0.34-0.05,0.67-0.09,0.98-0.11c0.31-0.02,0.65-0.04,1.03-0.04c0.33,0,0.64,0.01,0.95,0.04c0.31,0.02,0.65,0.06,1.03,0.11
		l5.5,17.57c-0.67,0.1-1.32,0.15-1.95,0.15c-0.62,0-1.22-0.05-1.81-0.15l-0.98-3.52h-5.82l-1,3.52c-0.59,0.1-1.15,0.15-1.69,0.15
		c-0.6,0-1.2-0.05-1.78-0.15L386.78,104.71z M366.52,104.71c0.28-0.03,0.59-0.07,0.95-0.1c0.36-0.03,0.68-0.05,0.95-0.05
		c0.62,0,1.27,0.05,1.95,0.15l3.84,13.85l3.89-13.85c0.33-0.05,0.64-0.08,0.94-0.1c0.3-0.02,0.61-0.02,0.92-0.02
		c0.29,0,0.59,0.01,0.89,0.02c0.3,0.02,0.61,0.05,0.94,0.1l-5.67,17.57c-0.34,0.05-0.67,0.09-0.99,0.11
		c-0.32,0.02-0.66,0.04-1.01,0.04c-0.33,0-0.64-0.01-0.95-0.04c-0.31-0.02-0.65-0.06-1.03-0.11L366.52,104.71z M360.97,104.71
		c0.6-0.1,1.2-0.15,1.78-0.15c0.59,0,1.19,0.05,1.81,0.15v17.57c-0.62,0.1-1.21,0.15-1.78,0.15c-0.6,0-1.21-0.05-1.81-0.15V104.71z
		 M346.22,104.71c0.72-0.08,1.39-0.15,2.02-0.21c0.63-0.06,1.32-0.09,2.09-0.09c0.9,0,1.78,0.08,2.65,0.24
		c0.87,0.16,1.66,0.45,2.36,0.87c0.7,0.41,1.27,0.98,1.7,1.69c0.43,0.71,0.65,1.61,0.65,2.7c0,0.65-0.08,1.23-0.24,1.72
		c-0.16,0.5-0.37,0.93-0.62,1.31c-0.25,0.37-0.53,0.7-0.82,0.97c-0.29,0.27-0.57,0.48-0.83,0.65l-0.42,0.27l4.28,7.43
		c-0.33,0.03-0.67,0.07-1.03,0.1c-0.36,0.03-0.73,0.05-1.1,0.05c-0.62,0-1.23-0.05-1.83-0.15l-4.59-8.16l0.59-0.29
		c0.23-0.11,0.5-0.26,0.83-0.44c0.33-0.18,0.64-0.4,0.94-0.67c0.3-0.27,0.56-0.59,0.77-0.98c0.21-0.38,0.32-0.84,0.32-1.36
		c0-1.03-0.29-1.78-0.88-2.26c-0.59-0.48-1.34-0.72-2.27-0.72c-0.36,0-0.68,0.02-0.98,0.07v14.83c-0.29,0.03-0.59,0.06-0.88,0.09
		c-0.29,0.02-0.58,0.04-0.86,0.04c-0.28,0-0.57-0.01-0.88-0.02c-0.31-0.02-0.63-0.05-0.95-0.1V104.71z M335.37,113.68
		c0.2,0.03,0.38,0.05,0.55,0.05c0.17,0,0.38,0,0.62,0c0.41,0,0.81-0.05,1.2-0.16c0.39-0.11,0.74-0.28,1.04-0.53
		c0.3-0.24,0.54-0.57,0.72-0.96c0.18-0.4,0.27-0.89,0.27-1.48c0-0.6-0.09-1.11-0.27-1.53c-0.18-0.42-0.42-0.75-0.72-1
		c-0.3-0.25-0.65-0.43-1.04-0.54c-0.39-0.11-0.79-0.16-1.2-0.16c-0.18,0-0.35,0-0.5,0.01c-0.15,0.01-0.38,0.03-0.67,0.06V113.68z
		 M331.8,104.64c0.75-0.07,1.51-0.12,2.27-0.16c0.77-0.04,1.54-0.06,2.32-0.06c0.81,0,1.64,0.08,2.48,0.24s1.6,0.47,2.27,0.92
		c0.68,0.45,1.23,1.07,1.65,1.87c0.42,0.8,0.64,1.83,0.64,3.1s-0.21,2.3-0.64,3.09c-0.42,0.79-0.97,1.41-1.64,1.87
		c-0.67,0.46-1.41,0.77-2.24,0.93c-0.82,0.16-1.63,0.24-2.43,0.24c-0.21,0-0.41,0-0.6-0.01c-0.19-0.01-0.36-0.02-0.52-0.04v5.64
		c-0.31,0.05-0.61,0.08-0.9,0.1c-0.29,0.02-0.58,0.02-0.86,0.02c-0.26,0-0.55-0.01-0.86-0.02c-0.31-0.02-0.63-0.05-0.95-0.1V104.64z
		 M322.93,118.96c0.21,0.46,0.39,0.92,0.52,1.41c0.14,0.48,0.24,0.96,0.31,1.45c-0.85,0.31-1.61,0.51-2.28,0.61
		c-0.68,0.1-1.4,0.15-2.19,0.15c-1.38,0-2.6-0.22-3.64-0.67c-1.04-0.45-1.92-1.07-2.63-1.88c-0.71-0.81-1.24-1.76-1.6-2.87
		c-0.36-1.11-0.54-2.31-0.54-3.62c0-1.3,0.19-2.51,0.56-3.63c0.37-1.12,0.92-2.08,1.62-2.89c0.71-0.81,1.58-1.45,2.61-1.91
		c1.03-0.46,2.21-0.68,3.53-0.68c0.78,0,1.5,0.05,2.16,0.15c0.66,0.1,1.37,0.3,2.14,0.61c-0.03,0.49-0.13,0.97-0.29,1.43
		c-0.16,0.46-0.34,0.93-0.54,1.4c-0.57-0.2-1.08-0.33-1.52-0.41c-0.44-0.08-0.96-0.12-1.56-0.12c-1.56,0-2.77,0.51-3.6,1.53
		c-0.84,1.02-1.26,2.53-1.26,4.53c0,3.97,1.69,5.96,5.06,5.96c0.6,0,1.13-0.04,1.59-0.12C321.85,119.29,322.36,119.15,322.93,118.96
		z M304.31,104.71c0.6-0.1,1.2-0.15,1.78-0.15c0.59,0,1.19,0.05,1.81,0.15v17.57c-0.62,0.1-1.21,0.15-1.78,0.15
		c-0.6,0-1.21-0.05-1.81-0.15V104.71z M284.84,104.71c0.65-0.1,1.28-0.15,1.88-0.15c0.64,0,1.26,0.05,1.88,0.15l4.03,10.07
		l4.15-10.07c0.5-0.1,1.07-0.15,1.69-0.15c0.62,0,1.21,0.05,1.78,0.15l0.83,17.57c-0.62,0.1-1.21,0.15-1.76,0.15
		c-0.55,0-1.1-0.05-1.64-0.15l-0.44-11.92l-3.57,8.26c-0.23,0.03-0.46,0.06-0.71,0.09c-0.24,0.02-0.49,0.04-0.73,0.04
		c-0.21,0-0.42-0.01-0.64-0.02c-0.21-0.02-0.43-0.05-0.66-0.1l-3.32-8.43l-0.34,12.09c-0.52,0.1-1.03,0.15-1.52,0.15
		c-0.52,0-1.06-0.05-1.61-0.15L284.84,104.71z M271.38,104.71h9.97c0.1,0.49,0.15,0.99,0.15,1.49c0,0.54-0.05,1.05-0.15,1.54h-6.4
		v3.81h5.08c0.1,0.52,0.15,1.03,0.15,1.52c0,0.52-0.05,1.03-0.15,1.54h-5.08v4.64h6.57c0.1,0.49,0.15,0.99,0.15,1.49
		c0,0.54-0.05,1.05-0.15,1.54h-10.14V104.71z M257.94,119.44c0.15,0.02,0.33,0.03,0.56,0.05c0.23,0.02,0.5,0.02,0.83,0.02
		c0.75,0,1.45-0.09,2.09-0.26c0.64-0.17,1.2-0.48,1.67-0.94c0.47-0.46,0.85-1.07,1.12-1.83c0.28-0.77,0.42-1.75,0.42-2.96
		c0-1.17-0.14-2.15-0.42-2.93c-0.28-0.78-0.65-1.4-1.12-1.86c-0.47-0.46-1.01-0.78-1.63-0.97c-0.61-0.19-1.26-0.28-1.94-0.28
		c-0.23,0-0.49,0-0.79,0.01c-0.3,0.01-0.57,0.03-0.79,0.06V119.44z M254.35,104.71c0.68-0.08,1.4-0.15,2.15-0.21
		c0.75-0.06,1.58-0.09,2.49-0.09c3.08,0,5.42,0.77,7.02,2.3c1.6,1.53,2.41,3.83,2.41,6.89c0,3.08-0.81,5.34-2.44,6.79
		c-1.63,1.45-4.05,2.17-7.26,2.17c-0.83,0-1.6-0.03-2.3-0.09c-0.7-0.06-1.39-0.13-2.08-0.21V104.71z M246.72,115.8l-2.03-7.38
		l-2.13,7.38H246.72z M242.82,104.71c0.34-0.05,0.67-0.09,0.98-0.11c0.31-0.02,0.65-0.04,1.03-0.04c0.33,0,0.64,0.01,0.95,0.04
		c0.31,0.02,0.65,0.06,1.03,0.11l5.5,17.57c-0.67,0.1-1.32,0.15-1.95,0.15c-0.62,0-1.22-0.05-1.81-0.15l-0.98-3.52h-5.82l-1,3.52
		c-0.59,0.1-1.15,0.15-1.69,0.15c-0.6,0-1.2-0.05-1.78-0.15L242.82,104.71z M235.24,118.96c0.21,0.46,0.39,0.92,0.52,1.41
		c0.14,0.48,0.24,0.96,0.31,1.45c-0.85,0.31-1.61,0.51-2.28,0.61c-0.68,0.1-1.4,0.15-2.19,0.15c-1.38,0-2.6-0.22-3.64-0.67
		c-1.04-0.45-1.92-1.07-2.63-1.88c-0.71-0.81-1.24-1.76-1.6-2.87c-0.36-1.11-0.54-2.31-0.54-3.62c0-1.3,0.19-2.51,0.56-3.63
		c0.37-1.12,0.92-2.08,1.62-2.89c0.71-0.81,1.58-1.45,2.61-1.91c1.03-0.46,2.21-0.68,3.53-0.68c0.78,0,1.5,0.05,2.16,0.15
		c0.66,0.1,1.37,0.3,2.14,0.61c-0.03,0.49-0.13,0.97-0.29,1.43c-0.16,0.46-0.34,0.93-0.54,1.4c-0.57-0.2-1.08-0.33-1.52-0.41
		c-0.44-0.08-0.96-0.12-1.56-0.12c-1.56,0-2.77,0.51-3.6,1.53c-0.84,1.02-1.26,2.53-1.26,4.53c0,3.97,1.69,5.96,5.06,5.96
		c0.6,0,1.13-0.04,1.59-0.12C234.16,119.29,234.67,119.15,235.24,118.96z M216.7,115.8l-2.03-7.38l-2.13,7.38H216.7z M212.79,104.71
		c0.34-0.05,0.67-0.09,0.98-0.11c0.31-0.02,0.65-0.04,1.03-0.04c0.33,0,0.64,0.01,0.95,0.04c0.31,0.02,0.65,0.06,1.03,0.11
		l5.5,17.57c-0.67,0.1-1.32,0.15-1.95,0.15c-0.62,0-1.22-0.05-1.81-0.15l-0.98-3.52h-5.82l-1,3.52c-0.59,0.1-1.15,0.15-1.69,0.15
		c-0.6,0-1.2-0.05-1.78-0.15L212.79,104.71z"/>
</g>
</svg>
