<?xml version="1.0" encoding="utf-8"?>
<!-- Generator: Adobe Illustrator 26.0.1, SVG Export Plug-In . SVG Version: 6.00 Build 0)  -->
<svg version="1.1" id="Layer_1" xmlns="http://www.w3.org/2000/svg" xmlns:xlink="http://www.w3.org/1999/xlink" x="0px" y="0px"
	 viewBox="0 0 521.7 123.5" style="enable-background:new 0 0 521.7 123.5;" xml:space="preserve">
<style type="text/css">
	.st0{fill-rule:evenodd;clip-rule:evenodd;fill:#00405C;}
	.st1{fill-rule:evenodd;clip-rule:evenodd;fill:#F6A200;}
	.st2{fill:#E7E6E6;}
	.st3{fill:#030304;}
	.st4{fill-rule:evenodd;clip-rule:evenodd;fill:#E7E6E6;}
	.st5{fill:#FFFFFF;}
</style>
<polygon class="st0" points="91.4,0 354.4,0 354.4,87 187.1,87 "/>
<rect x="354.4" class="st1" width="167.3" height="87"/>
<path class="st2" d="M338.7,5.8h10.5v41.4c0,6.4-2.1,11.9-6.2,16.5c-4.1,4.6-9.2,6.8-15.1,6.8c-3.9,0-7.5-1.1-10.7-3.1
	s-5.9-4.9-7.8-8.5s-2.9-7.5-2.9-11.7V5.8h10.5v41.5c0,3.2,1.1,6,3.2,8.3c2.1,2.3,4.7,3.5,7.7,3.5c3,0,5.6-1.2,7.7-3.5
	s3.2-5.1,3.2-8.3L338.7,5.8L338.7,5.8z M268.1,59.1c5.3,0,9.9-2,13.6-6.1c3.8-4.1,5.7-9,5.7-14.8s-1.9-10.8-5.7-14.9
	s-8.3-6.1-13.6-6.1h-2.7v42H268.1z M267.9,5.8c5.4,0,10.3,1.4,14.9,4.3s8.2,6.8,10.8,11.8c2.7,5,4,10.4,4,16.3s-1.3,11.3-4,16.3
	c-2.7,5-6.3,8.9-10.8,11.8s-9.5,4.3-14.9,4.3h-13V5.8h10.3H267.9z M205.2,5.8h40.9v11.3c0,0.1,0,0.2,0,0.2c0,3-1,5.6-3,7.8
	c-2.1,2.2-4.5,3.3-7.4,3.3V17.1h-20v15.2h20v11.3h-20v15.5h20V47.8c2.9,0,5.3,1.1,7.4,3.3c2,2.2,3,4.8,3,7.8c0,0.1,0,0.1,0,0.2v11.3
	h-30.4v0.4c0,2.9-1,5.4-3.1,7.4s-4.5,3.1-7.4,3.1V17.1h-1.3c-3.1,0-5.6-1.1-7.8-3.2c-2.1-2.1-3.2-4.7-3.2-7.7V5.8H205.2z"/>
<path class="st3" d="M505.5,5.8h10.4v64.9h-10.4c0,0,0,0,0-0.1v-0.2l-29.1-45.2v45.3h-10.5V5.8h10.5l29.1,45.1L505.5,5.8L505.5,5.8z
	 M416.3,5.8h41v11.3h-0.1h-10.4h-20v15.2h20v11.3h-20v15.5h30.5v11.3h-41L416.3,5.8L416.3,5.8z M380.6,17.1v15.3h9.2
	c1.9,0,3.6-0.7,5-2.2c1.4-1.5,2.1-3.3,2.1-5.4c0-1.1-0.2-2.1-0.6-3s-0.9-1.8-1.5-2.4c-0.6-0.7-1.4-1.2-2.2-1.6
	c-0.9-0.4-1.8-0.6-2.7-0.6L380.6,17.1L380.6,17.1z M390.1,43.5h-6.8l24.2,26.9h-14l-13.1-14.5v14.9c0,2.9-1,5.3-3,7.4
	s-4.5,3.1-7.5,3.1V17.1h-1.1c-3.1,0-5.6-1.1-7.8-3.2c-2.1-2.1-3.2-4.7-3.2-7.7V5.8h32.2c4.8,0,8.9,1.8,12.3,5.5s5.1,8.1,5.1,13.4
	c0,5.2-1.7,9.7-5.1,13.4C399,41.7,394.9,43.5,390.1,43.5z"/>
<polygon class="st0" points="79.4,0 0,123.5 149.5,123.5 "/>
<path class="st4" d="M96.8,107.9c-3.4-2.3-7.3-3.8-11.5-5.1l-3.6,3.7c0.9,0.2,2.5,0.4,3.5,0.5c3.3,0.6,6.7,1.7,9.7,3.1
	c3.2,1.5,5.3,2.7,8,4.7c1.1,0.8,5.4,4.3,5.8,5.2v0.2l-2.5-1.9c-0.9-0.7-1.7-1.2-2.6-1.9c-1.7-1.2-3.6-2.3-5.6-3.3
	c-2.7-1.3-10.3-4.2-13.8-4c-0.8,0.7-1.2,1.2-1.9,1.9c-0.4,0.4-1.5,1.3-1.8,1.9c8.2-0.6,15.4,1.2,22.6,4.4c2.4,1.1,3.9,2.3,5.7,3.2
	c0.5,0.9,1.6,1.3,2.2,0.3c2-1.2,3.6-2.3,5.8-3.4c6.3-3.1,15.8-5.4,22.9-4.6c-0.4-0.8-2-2.2-2.6-2.8c-1.4-1.5-1.6-1-4-0.6
	c-5.6,0.9-10.8,3.3-15.3,6.1c-2.4,1.5-5.1,3.8-6.1,4.5l0.1-0.3c0.2-0.3,0.5-0.6,0.9-1.1c1.4-1.5,3.9-3.3,5.7-4.6
	c3.8-2.7,9.1-5.2,13.7-6.3c0.9-0.2,6.4-1.2,6.6-1.3c-0.2-0.5-2.9-2.9-3.5-3.6c-10.4,3.2-22,13.8-24,16.6c0.4-1.2,1.5-2.6,2.1-3.6
	c3.7-5.5,8.4-10.4,14.1-13.8c3.9-2.2,5.3-2.1,7.6-2.9l0.4-0.2l-16.7-16.7c-0.8,0.4-2.8,3.2-3.4,4.1c-1,1.5-1.8,3-2.5,4.8
	c-0.9,2.3-2.7,10.2-2.9,11.9c-0.5-1.6-1.7-11.7-5.1-16.7c-0.8-1.2-2.4-3.6-3.4-4.1l-8.2,8.2c-0.4,0.4-8.2,8-8.3,8.4
	c0.5,0.3,4.8,1.4,7.8,3c4.6,2.5,8.4,6,11.7,10.1c0.9,1.2,4.2,5.7,4.4,6.9C107.1,117,101.3,111,96.8,107.9"/>
<path class="st4" d="M73.5,57.2c6.1-1.7,13.9-0.1,17.2,1.2c2.8,1.1,3.5,2.3,6.7,1.2l6.8-2.5l0.1,22.1h0.6l-0.2-22.4l4.4-1.4
	c-1.3-2.2-27.1-13.2-31.2-15.1L46,54.6l14.5,6l0,9.3c4.5-1.1,12-7.9,26.4-3.4c2.2,0.7,6.6,3.1,7.9,3.1l-0.1-6.5
	C89.9,56.9,74.6,57.5,73.5,57.2"/>
<path class="st4" d="M42,77.7c-7.7,1.6-5.4,12.2,1.8,11.1c3.2-0.5,5-3.4,4.6-6.6C47.9,79.4,44.8,77.1,42,77.7 M40.7,121
	c1.1,0.3,13.4,0.2,15,0.1c0-0.7,0.1-1.2-0.2-1.8l-3.6,0c0-0.9,0.2-2.3-0.1-2.9c-0.7-0.5-5.9-0.3-7.2-0.1l-0.1,3l-3.9,0.1L40.7,121z
	 M65.1,96.6c-6.5-0.1-11,3.9-13.6,3.9c-3.5,0.1-8-4.9-14.7-3.3c0.3,1.4,1.9,8.3,2.3,11.1c0.2,0.3,4.2,1.4,5,1.8
	c4.7,2.1,4.2,3.1,7.3,3c1.5,0,1.3-0.3,2.4-1.1c1.2-0.8,3.2-1.9,4.6-2.4c0.5-0.1,3.7-0.9,3.8-1.2C62.6,108.1,64.8,97.9,65.1,96.6z
	 M50.4,91.6c1.5,2.7,6.2,3,7,0.2c1-2.5-0.2-5.6-3.2-5.8c-1.5-0.1-2.6,0.4-3.5,1.5C50,88.6,50,90.4,50.4,91.6z M68.7,92.5
	c0-1.2,0-2.4,0-3.7c0-1,0.3-2.3-0.9-2.6c-0.6-0.2-5.9-0.1-6.8,0c0,0.7,0,1.3,0.4,1.7c0.2,0.9,4.4-0.3,5,0.5l0,11.8l0,8.6l0,4.6
	c-2.4,0.3-6.6,0.1-9.2,0.1c-4,0-26.2,0.2-26.9-0.2c0-8.6,0-16.7,0-24.8c0.3-0.3-0.2-0.2,0.5-0.3l2.4,0c0.2-0.7,0.3-1.3,0-1.8
	c-0.5-0.3-3.9-0.3-4.6,0c-1.1,0.4-0.7,3.2-0.7,4.2c0,4.9,0,9.8,0,14.6l0,5.6c0,1.2-0.4,3.6,0.5,4.5c0.7,0.4,30,0.2,35.5,0.2
	c5,0,4.9,0.5,4.8-2.9l0-5.6v-3.5L68.7,92.5z M36.3,100.5l-0.9-4.1c1.3-1.1,4.9-0.9,6.5-0.7c4.1,0.7,5.7,2.7,8.3,3.4
	c1.4,0.4,2.2-0.1,3.4-0.8c2.1-1.1,5.8-2.3,7.4-2.4c-1.3-2-9.4-1.4-9.4,1.6c-1.2-0.3-0.2-1.5-1.5-4.1c-0.6-1.1-1.6-2.2-2.7-2.8
	c-2.5-1.4-1.9-0.4-4.3-0.1c-1.8,0.2-3.4-0.5-5.2-0.5c-3,0.1-4.8,3.1-5.1,5.9c-0.2,1.8-0.9,9.5,0.2,10.5c0.4,1.7,3.5,1.1,4.9,1.1
	L36.3,100.5z"/>
<polygon class="st1" points="79.4,0 149.5,123.5 175.2,87.4 "/>
<path class="st5" d="M518,122.3c-0.1-0.6-0.2-1.2-0.2-1.8c0-0.6,0-1.2,0.2-1.8c0.6-0.1,1.2-0.2,1.8-0.2c0.6,0,1.2,0.1,1.8,0.2
	c0.1,0.6,0.2,1.2,0.2,1.8c0,0.6,0,1.2-0.2,1.8c-0.6,0.1-1.2,0.2-1.8,0.2C519.2,122.4,518.6,122.4,518,122.3 M505.2,119.4
	c0.1,0,0.3,0,0.6,0.1c0.2,0,0.5,0,0.8,0c0.8,0,1.5-0.1,2.1-0.3c0.6-0.2,1.2-0.5,1.7-0.9s0.9-1.1,1.1-1.8c0.3-0.8,0.4-1.8,0.4-3
	c0-1.2-0.1-2.2-0.4-2.9s-0.6-1.4-1.1-1.9s-1-0.8-1.6-1s-1.3-0.3-1.9-0.3c-0.2,0-0.5,0-0.8,0c-0.3,0-0.6,0-0.8,0.1L505.2,119.4
	L505.2,119.4z M501.7,104.7c0.7-0.1,1.4-0.2,2.1-0.2s1.6-0.1,2.5-0.1c3.1,0,5.4,0.8,7,2.3c1.6,1.5,2.4,3.8,2.4,6.9
	c0,3.1-0.8,5.3-2.4,6.8c-1.6,1.4-4,2.2-7.3,2.2c-0.8,0-1.6,0-2.3-0.1c-0.7-0.1-1.4-0.1-2.1-0.2L501.7,104.7L501.7,104.7z
	 M488.6,104.7h10c0.1,0.5,0.1,1,0.1,1.5c0,0.5,0,1.1-0.1,1.5h-6.4v3.8h5.1c0.1,0.5,0.1,1,0.1,1.5c0,0.5,0,1-0.1,1.5h-5.1v4.6h6.6
	c0.1,0.5,0.1,1,0.1,1.5c0,0.5,0,1.1-0.1,1.5h-10.1V104.7z M478.2,107.7h-4.4c-0.1-0.5-0.1-1-0.1-1.5c0-0.5,0-1,0.1-1.5h12.3
	c0.1,0.5,0.1,1,0.1,1.5c0,0.5,0,1.1-0.1,1.5h-4.4v14.5c-0.3,0-0.6,0.1-0.9,0.1c-0.3,0-0.6,0-0.9,0s-0.6,0-0.9,0
	c-0.3,0-0.6-0.1-1-0.1V107.7z M467.8,104.7c0.6-0.1,1.2-0.2,1.8-0.2c0.6,0,1.2,0.1,1.8,0.2v17.6c-0.6,0.1-1.2,0.2-1.8,0.2
	c-0.6,0-1.2-0.1-1.8-0.2V104.7z M448.3,104.7c0.6-0.1,1.3-0.2,1.9-0.2c0.6,0,1.3,0.1,1.9,0.2l4,10.1l4.1-10.1
	c0.5-0.1,1.1-0.2,1.7-0.2s1.2,0.1,1.8,0.2l0.8,17.6c-0.6,0.1-1.2,0.2-1.8,0.2c-0.5,0-1.1-0.1-1.6-0.2l-0.4-11.9l-3.6,8.3
	c-0.2,0-0.5,0.1-0.7,0.1c-0.2,0-0.5,0-0.7,0c-0.2,0-0.4,0-0.6,0c-0.2,0-0.4-0.1-0.7-0.1l-3.3-8.4l-0.3,12.1c-0.5,0.1-1,0.2-1.5,0.2
	c-0.5,0-1.1-0.1-1.6-0.2L448.3,104.7z M440.8,104.7c0.6-0.1,1.2-0.2,1.8-0.2c0.6,0,1.2,0.1,1.8,0.2v17.6c-0.6,0.1-1.2,0.2-1.8,0.2
	c-0.6,0-1.2-0.1-1.8-0.2V104.7z M428.7,104.7c0.6-0.1,1.2-0.2,1.7-0.2c0.6,0,1.2,0.1,1.8,0.2v14.5h6.1c0,0.3,0.1,0.5,0.1,0.8
	c0,0.2,0,0.5,0,0.7c0,0.3,0,0.5,0,0.8c0,0.2,0,0.5-0.1,0.8h-9.6L428.7,104.7L428.7,104.7z M410.4,104.7h10c0.1,0.5,0.1,1,0.1,1.5
	c0,0.5,0,1.1-0.1,1.5H414v3.8h5.1c0.1,0.5,0.1,1,0.1,1.5c0,0.5,0,1-0.1,1.5H414v4.6h6.6c0.1,0.5,0.1,1,0.1,1.5c0,0.5,0,1.1-0.1,1.5
	h-10.1V104.7z M399.9,107.7h-4.4c-0.1-0.5-0.1-1-0.1-1.5c0-0.5,0-1,0.1-1.5h12.3c0.1,0.5,0.1,1,0.1,1.5c0,0.5,0,1.1-0.1,1.5h-4.4
	v14.5c-0.3,0-0.6,0.1-0.9,0.1c-0.3,0-0.6,0-0.9,0s-0.6,0-0.9,0c-0.3,0-0.6-0.1-1-0.1V107.7z M390.7,115.8l-2-7.4l-2.1,7.4H390.7z
	 M386.8,104.7c0.3-0.1,0.7-0.1,1-0.1c0.3,0,0.6,0,1,0c0.3,0,0.6,0,1,0c0.3,0,0.6,0.1,1,0.1l5.5,17.6c-0.7,0.1-1.3,0.2-2,0.2
	c-0.6,0-1.2-0.1-1.8-0.2l-1-3.5h-5.8l-1,3.5c-0.6,0.1-1.1,0.2-1.7,0.2c-0.6,0-1.2-0.1-1.8-0.2L386.8,104.7z M366.5,104.7
	c0.3,0,0.6-0.1,1-0.1c0.4,0,0.7-0.1,1-0.1c0.6,0,1.3,0.1,2,0.2l3.8,13.8l3.9-13.8c0.3-0.1,0.6-0.1,0.9-0.1s0.6,0,0.9,0
	c0.3,0,0.6,0,0.9,0c0.3,0,0.6,0.1,0.9,0.1l-5.7,17.6c-0.3,0.1-0.7,0.1-1,0.1c-0.3,0-0.7,0-1,0c-0.3,0-0.6,0-1,0
	c-0.3,0-0.6-0.1-1-0.1L366.5,104.7z M361,104.7c0.6-0.1,1.2-0.2,1.8-0.2c0.6,0,1.2,0.1,1.8,0.2v17.6c-0.6,0.1-1.2,0.2-1.8,0.2
	c-0.6,0-1.2-0.1-1.8-0.2V104.7z M346.2,104.7c0.7-0.1,1.4-0.2,2-0.2c0.6-0.1,1.3-0.1,2.1-0.1c0.9,0,1.8,0.1,2.6,0.2
	c0.9,0.2,1.7,0.4,2.4,0.9c0.7,0.4,1.3,1,1.7,1.7c0.4,0.7,0.6,1.6,0.6,2.7c0,0.7-0.1,1.2-0.2,1.7c-0.2,0.5-0.4,0.9-0.6,1.3
	c-0.2,0.4-0.5,0.7-0.8,1c-0.3,0.3-0.6,0.5-0.8,0.7l-0.4,0.3l4.3,7.4c-0.3,0-0.7,0.1-1,0.1s-0.7,0.1-1.1,0.1c-0.6,0-1.2-0.1-1.8-0.2
	l-4.6-8.2l0.6-0.3c0.2-0.1,0.5-0.3,0.8-0.4s0.6-0.4,0.9-0.7s0.6-0.6,0.8-1c0.2-0.4,0.3-0.8,0.3-1.4c0-1-0.3-1.8-0.9-2.3
	s-1.3-0.7-2.3-0.7c-0.4,0-0.7,0-1,0.1v14.8c-0.3,0-0.6,0.1-0.9,0.1c-0.3,0-0.6,0-0.9,0s-0.6,0-0.9,0c-0.3,0-0.6-0.1-1-0.1
	L346.2,104.7L346.2,104.7z M335.4,113.7c0.2,0,0.4,0.1,0.5,0.1c0.2,0,0.4,0,0.6,0c0.4,0,0.8-0.1,1.2-0.2s0.7-0.3,1-0.5
	c0.3-0.2,0.5-0.6,0.7-1c0.2-0.4,0.3-0.9,0.3-1.5c0-0.6-0.1-1.1-0.3-1.5s-0.4-0.8-0.7-1s-0.6-0.4-1-0.5s-0.8-0.2-1.2-0.2
	c-0.2,0-0.4,0-0.5,0s-0.4,0-0.7,0.1L335.4,113.7L335.4,113.7z M331.8,104.6c0.8-0.1,1.5-0.1,2.3-0.2c0.8,0,1.5-0.1,2.3-0.1
	c0.8,0,1.6,0.1,2.5,0.2s1.6,0.5,2.3,0.9c0.7,0.4,1.2,1.1,1.6,1.9c0.4,0.8,0.6,1.8,0.6,3.1s-0.2,2.3-0.6,3.1c-0.4,0.8-1,1.4-1.6,1.9
	s-1.4,0.8-2.2,0.9c-0.8,0.2-1.6,0.2-2.4,0.2c-0.2,0-0.4,0-0.6,0s-0.4,0-0.5,0v5.6c-0.3,0.1-0.6,0.1-0.9,0.1s-0.6,0-0.9,0
	c-0.3,0-0.5,0-0.9,0c-0.3,0-0.6-0.1-1-0.1L331.8,104.6L331.8,104.6z M322.9,119c0.2,0.5,0.4,0.9,0.5,1.4c0.1,0.5,0.2,1,0.3,1.4
	c-0.9,0.3-1.6,0.5-2.3,0.6c-0.7,0.1-1.4,0.2-2.2,0.2c-1.4,0-2.6-0.2-3.6-0.7s-1.9-1.1-2.6-1.9s-1.2-1.8-1.6-2.9
	c-0.4-1.1-0.5-2.3-0.5-3.6c0-1.3,0.2-2.5,0.6-3.6c0.4-1.1,0.9-2.1,1.6-2.9c0.7-0.8,1.6-1.4,2.6-1.9c1-0.5,2.2-0.7,3.5-0.7
	c0.8,0,1.5,0.1,2.2,0.2s1.4,0.3,2.1,0.6c0,0.5-0.1,1-0.3,1.4s-0.3,0.9-0.5,1.4c-0.6-0.2-1.1-0.3-1.5-0.4s-1-0.1-1.6-0.1
	c-1.6,0-2.8,0.5-3.6,1.5c-0.8,1-1.3,2.5-1.3,4.5c0,4,1.7,6,5.1,6c0.6,0,1.1,0,1.6-0.1C321.9,119.3,322.4,119.2,322.9,119z
	 M304.3,104.7c0.6-0.1,1.2-0.2,1.8-0.2c0.6,0,1.2,0.1,1.8,0.2v17.6c-0.6,0.1-1.2,0.2-1.8,0.2c-0.6,0-1.2-0.1-1.8-0.2V104.7z
	 M284.8,104.7c0.6-0.1,1.3-0.2,1.9-0.2c0.6,0,1.3,0.1,1.9,0.2l4,10.1l4.1-10.1c0.5-0.1,1.1-0.2,1.7-0.2s1.2,0.1,1.8,0.2l0.8,17.6
	c-0.6,0.1-1.2,0.2-1.8,0.2c-0.5,0-1.1-0.1-1.6-0.2l-0.4-11.9l-3.6,8.3c-0.2,0-0.5,0.1-0.7,0.1c-0.2,0-0.5,0-0.7,0
	c-0.2,0-0.4,0-0.6,0c-0.2,0-0.4-0.1-0.7-0.1l-3.3-8.4l-0.3,12.1c-0.5,0.1-1,0.2-1.5,0.2c-0.5,0-1.1-0.1-1.6-0.2L284.8,104.7z
	 M271.4,104.7h10c0.1,0.5,0.1,1,0.1,1.5c0,0.5,0,1.1-0.1,1.5H275v3.8h5.1c0.1,0.5,0.1,1,0.1,1.5c0,0.5,0,1-0.1,1.5H275v4.6h6.6
	c0.1,0.5,0.1,1,0.1,1.5c0,0.5,0,1.1-0.1,1.5h-10.1V104.7z M257.9,119.4c0.1,0,0.3,0,0.6,0.1c0.2,0,0.5,0,0.8,0
	c0.8,0,1.5-0.1,2.1-0.3c0.6-0.2,1.2-0.5,1.7-0.9s0.9-1.1,1.1-1.8c0.3-0.8,0.4-1.8,0.4-3c0-1.2-0.1-2.2-0.4-2.9s-0.6-1.4-1.1-1.9
	s-1-0.8-1.6-1c-0.6-0.2-1.3-0.3-1.9-0.3c-0.2,0-0.5,0-0.8,0c-0.3,0-0.6,0-0.8,0.1L257.9,119.4L257.9,119.4z M254.4,104.7
	c0.7-0.1,1.4-0.2,2.1-0.2s1.6-0.1,2.5-0.1c3.1,0,5.4,0.8,7,2.3c1.6,1.5,2.4,3.8,2.4,6.9c0,3.1-0.8,5.3-2.4,6.8
	c-1.6,1.4-4,2.2-7.3,2.2c-0.8,0-1.6,0-2.3-0.1c-0.7-0.1-1.4-0.1-2.1-0.2L254.4,104.7L254.4,104.7z M246.7,115.8l-2-7.4l-2.1,7.4
	H246.7z M242.8,104.7c0.3-0.1,0.7-0.1,1-0.1c0.3,0,0.6,0,1,0c0.3,0,0.6,0,0.9,0c0.3,0,0.6,0.1,1,0.1l5.5,17.6
	c-0.7,0.1-1.3,0.2-1.9,0.2c-0.6,0-1.2-0.1-1.8-0.2l-1-3.5h-5.8l-1,3.5c-0.6,0.1-1.1,0.2-1.7,0.2c-0.6,0-1.2-0.1-1.8-0.2L242.8,104.7
	z M235.2,119c0.2,0.5,0.4,0.9,0.5,1.4c0.1,0.5,0.2,1,0.3,1.4c-0.9,0.3-1.6,0.5-2.3,0.6c-0.7,0.1-1.4,0.2-2.2,0.2
	c-1.4,0-2.6-0.2-3.6-0.7s-1.9-1.1-2.6-1.9s-1.2-1.8-1.6-2.9s-0.5-2.3-0.5-3.6c0-1.3,0.2-2.5,0.6-3.6c0.4-1.1,0.9-2.1,1.6-2.9
	c0.7-0.8,1.6-1.4,2.6-1.9c1-0.5,2.2-0.7,3.5-0.7c0.8,0,1.5,0.1,2.2,0.2s1.4,0.3,2.1,0.6c0,0.5-0.1,1-0.3,1.4
	c-0.2,0.5-0.3,0.9-0.5,1.4c-0.6-0.2-1.1-0.3-1.5-0.4s-1-0.1-1.6-0.1c-1.6,0-2.8,0.5-3.6,1.5c-0.8,1-1.3,2.5-1.3,4.5c0,4,1.7,6,5.1,6
	c0.6,0,1.1,0,1.6-0.1C234.2,119.3,234.7,119.2,235.2,119z M216.7,115.8l-2-7.4l-2.1,7.4H216.7z M212.8,104.7c0.3-0.1,0.7-0.1,1-0.1
	c0.3,0,0.6,0,1,0c0.3,0,0.6,0,0.9,0c0.3,0,0.6,0.1,1,0.1l5.5,17.6c-0.7,0.1-1.3,0.2-1.9,0.2c-0.6,0-1.2-0.1-1.8-0.2l-1-3.5h-5.8
	l-1,3.5c-0.6,0.1-1.1,0.2-1.7,0.2c-0.6,0-1.2-0.1-1.8-0.2L212.8,104.7z"/>
</svg>
